HIERARCHY
ROOT root
{
	OFFSET	0	13.1	24.9
	CHANNELS 6  Xposition Yposition Zposition Xrotation Yrotation Zrotation
	JOINT spine_1
	{
		OFFSET	0	9.99999	0
		CHANNELS 3  Xrotation Yrotation Zrotation
		JOINT spine_2
		{
			OFFSET	0	112	-10
			CHANNELS 3  Xrotation Yrotation Zrotation
			JOINT spine_3
			{
				OFFSET	0	206.5	19.3
				CHANNELS 3  Xrotation Yrotation Zrotation
				JOINT spine_4
				{
					OFFSET	0	110.4	14.6
					CHANNELS 3  Xrotation Yrotation Zrotation
					JOINT neck_1
					{
						OFFSET	0	71.8	-50.3
						CHANNELS 3  Xrotation Yrotation Zrotation
						JOINT neck_2
						{
							OFFSET	0	86.2	-25.8
							CHANNELS 3  Xrotation Yrotation Zrotation
							JOINT head_ee
							{
								OFFSET	0	179.8	-8.7
								CHANNELS 3  Xrotation Yrotation Zrotation
								End Site
								{
									OFFSET	1	0	0
								}
							}
						}
					}
					JOINT left_clavicle
					{
						OFFSET	-43.2	22.4	-70.8
						CHANNELS 3  Xrotation Yrotation Zrotation
						JOINT left_shoulder
						{
							OFFSET	-93.9	-5.79999	48.7
							CHANNELS 3  Xrotation Yrotation Zrotation
							JOINT left_elbow
							{
								OFFSET	-291.4	-30.8	15.2
								CHANNELS 3  Xrotation Yrotation Zrotation
								JOINT left_lowarm_twist
								{
									OFFSET	-110.7	-3.89999	13.6
									CHANNELS 3  Xrotation Yrotation Zrotation
									JOINT left_hand
									{
										OFFSET	-110.7	-3.89999	13.6
										CHANNELS 3  Xrotation Yrotation Zrotation
										JOINT left_ee
										{
											OFFSET	-80.8	-5.10001	12.1
											CHANNELS 3  Xrotation Yrotation Zrotation
											End Site
											{
												OFFSET	1	0	0
											}
										}
									}
								}
							}
						}
					}
					JOINT right_clavicle
					{
						OFFSET	43.2	22.4	-70.8
						CHANNELS 3  Xrotation Yrotation Zrotation
						JOINT right_shoulder
						{
							OFFSET	93.9	-5.79999	48.7
							CHANNELS 3  Xrotation Yrotation Zrotation
							JOINT right_elbow
							{
								OFFSET	291.4	-30.8	15.2
								CHANNELS 3  Xrotation Yrotation Zrotation
								JOINT right_lowarm_twist
								{
									OFFSET	110.7	-3.89999	13.6
									CHANNELS 3  Xrotation Yrotation Zrotation
									JOINT right_hand
									{
										OFFSET	110.7	-3.89999	13.6
										CHANNELS 3  Xrotation Yrotation Zrotation
										JOINT right_ee
										{
											OFFSET	80.8	-5.10001	12.1
											CHANNELS 3  Xrotation Yrotation Zrotation
											End Site
											{
												OFFSET	1	0	0
											}
										}
									}
								}
							}
						}
					}
				}
			}
		}
	}
	JOINT left_hip
	{
		OFFSET	-82.8	-127.5	0.300001
		CHANNELS 3  Xrotation Yrotation Zrotation
		JOINT left_knee
		{
			OFFSET	-28.2	-396.7	2.2
			CHANNELS 3  Xrotation Yrotation Zrotation
			JOINT left_ankle
			{
				OFFSET	-11.7	-411.3	35.4
				CHANNELS 3  Xrotation Yrotation Zrotation
				JOINT left_toes
				{
					OFFSET	0	-60	-88.6
					CHANNELS 3  Xrotation Yrotation Zrotation
					JOINT left_foot_ee
					{
						OFFSET	-22.5	-16.5	-42.2
						CHANNELS 3  Xrotation Yrotation Zrotation
						End Site
						{
							OFFSET	1	0	0
						}
					}
				}
			}
		}
	}
	JOINT right_hip
	{
		OFFSET	82.8	-127.5	0.300001
		CHANNELS 3  Xrotation Yrotation Zrotation
		JOINT right_knee
		{
			OFFSET	28.2	-396.7	2.2
			CHANNELS 3  Xrotation Yrotation Zrotation
			JOINT right_ankle
			{
				OFFSET	11.7	-411.3	35.4
				CHANNELS 3  Xrotation Yrotation Zrotation
				JOINT right_toes
				{
					OFFSET	0	-60	-88.6
					CHANNELS 3  Xrotation Yrotation Zrotation
					JOINT right_foot_ee
					{
						OFFSET	22.5	-16.5	-42.2
						CHANNELS 3  Xrotation Yrotation Zrotation
						End Site
						{
							OFFSET	1	0	0
						}
					}
				}
			}
		}
	}
}
MOTION
Frames: 16
Frame Time: 0.02
391.555 721.904 -1204.45 -164.679593549 -77.4186690199 -168.518615249 1.25855 0.186353 1.06935 1.25918 0.117934 1.07904 1.26153 -0.0876939 1.08192 1.2599 0.0842649 1.08219 -2.38165 4.64966 5.46709 -2.30219 4.10427 6.35571 -0.0 0.0 -0.0 -4.85853 11.375 -6.94704 1.30327 -49.7448 78.6691 1.02257 -26.864 0.244221 11.4667 0.260763 -1.43912 0.231243 4.32542 3.33549 -0.0 0.0 -0.0 2.06473 1.27664 -3.87056 -17.8587 20.9243 -69.2129 1.98961 44.5793 -0.815645 32.0545 0.00170264 4.04182 -0.550956 -18.5807 -4.19861 0.0 0.0 0.0 -4.40877 32.8102 7.28357 -1.90975 0.0739084 0.283748 24.6103 -30.695 -4.12953 -18.8211 0.0 0.0 -0.0 0.0 -0.0 11.9307 -26.2224 10.5646 -12.1743 -0.306796 -1.83964 20.443 32.4998 3.60973 -8.42225 0.0 0.0 0.0 0.0 0.0 
387.487028436 722.511 -1206.07573287 -162.737891637 -76.2693906145 -166.764352698 1.46476 0.15168 0.924806 1.46523 0.0925278 0.932582 1.4668 -0.0816777 0.933595 1.46559 0.0667847 0.934779 -3.04543 4.55018 5.01775 -2.97777 4.35853 5.87513 -0.0 0.0 -0.0 -4.57734 10.9124 -6.56552 2.62041 -50.7284 79.8639 0.975389 -25.7884 0.223295 11.9936 0.265777 -1.50623 0.114994 5.221 2.93817 -0.0 0.0 -0.0 1.98233 1.17584 -3.71864 -18.1994 22.8629 -68.2524 1.95708 44.1074 -0.792911 32.2866 0.00996023 4.0703 -0.625062 -18.8387 -3.85866 0.0 0.0 0.0 -5.32651 33.6951 8.85782 3.017 -0.135946 -0.442917 21.3164 -28.07 -3.53107 -20.402 0.0 0.0 -0.0 0.0 -0.0 12.6657 -25.2755 9.95924 -11.4885 -0.299962 -1.73463 20.5281 31.9656 3.59553 -8.5035 0.0 0.0 0.0 0.0 0.0 
428.899941446 706.249 -1116.99728679 -174.024272359 -33.4898390604 178.977238088 2.81403 0.733044 1.13439 2.8145 0.65938 1.17873 2.82806 0.460253 1.26977 2.82641 0.655 1.18116 -6.30529 8.18481 2.30916 -6.28389 13.4698 3.89526 -0.0 0.0 -0.0 -5.11592 23.156 -4.40398 -6.83392 -51.2245 64.4905 1.53206 -37.1937 0.515528 12.8485 0.272599 -1.61522 0.415596 -10.7802 -1.77687 -0.0 0.0 -0.0 2.74619 -2.39973 -5.45778 -26.373 40.2456 -60.9771 1.50098 36.6299 -0.496859 26.3028 -0.16575 3.32651 -1.72647 -28.0519 -1.57043 0.0 0.0 0.0 17.9418 19.865 -5.41266 -30.2087 0.0360176 4.58245 38.4592 19.2853 -4.868 -28.7511 0.0 0.0 -0.0 0.0 -0.0 13.567 -13.9246 10.7628 -24.0098 -0.226528 -3.65065 27.6478 32.483 4.65631 2.49066 -0.0 -0.0 0.0 0.0 0.0 
415.650488723 701.599 -1081.51175077 -174.363213753 -7.42363662508 174.740793332 3.95821 0.451089 1.70857 3.95977 0.341471 1.7338 3.96923 0.0918994 1.76471 3.96507 0.369407 1.72807 -11.4332 12.2669 3.18834 -11.6281 21.1622 6.47047 -0.0 0.0 -0.0 -5.99599 22.0594 -5.96148 -3.64705 -39.674 61.4046 2.48853 -50.9431 1.18559 13.0893 0.274227 -1.64593 0.272474 -14.9409 -4.52457 -0.0 0.0 -0.0 3.63396 4.72784 -6.71875 -33.1444 42.4875 -61.1381 1.02679 26.9592 -0.24613 27.9772 -0.124432 3.5364 -2.1523 -27.7263 0.898247 0.0 0.0 0.0 24.0831 10.6497 -6.88306 -18.262 0.312275 2.77321 30.1262 7.22687 -3.90225 -35.5096 0.0 0.0 -0.0 0.0 -0.0 10.9731 -11.1914 13.1768 -17.6597 -0.316154 -2.6809 36.7225 34.1115 5.89634 -3.93255 0.0 0.0 0.0 0.0 0.0 
413.961888364 701.599 -1081.19280121 -174.372729034 -6.64148456177 174.663077129 3.95821 0.451089 1.70857 3.95977 0.341471 1.7338 3.96923 0.0918994 1.76471 3.96507 0.369407 1.72807 -11.4332 12.2669 3.18834 -11.6281 21.1622 6.47047 -0.0 0.0 -0.0 -5.99599 22.0594 -5.96148 -3.64705 -39.674 61.4046 2.48853 -50.9431 1.18559 13.0893 0.274227 -1.64593 0.272474 -14.9409 -4.52457 -0.0 0.0 -0.0 3.63396 4.72784 -6.71875 -33.1444 42.4875 -61.1381 1.02679 26.9592 -0.24613 27.9772 -0.124432 3.5364 -2.1523 -27.7263 0.898247 0.0 0.0 0.0 24.0831 10.6497 -6.88306 -18.262 0.312275 2.77321 30.1262 7.22687 -3.90225 -35.5096 0.0 0.0 -0.0 0.0 -0.0 10.9731 -11.1914 13.1768 -17.6597 -0.316154 -2.6809 36.7225 34.1115 5.89634 -3.93255 0.0 0.0 0.0 0.0 0.0 
412.783818686 701.599 -1080.98444627 -174.378714787 -6.09696262885 174.609120493 3.95821 0.451089 1.70857 3.95977 0.341471 1.7338 3.96923 0.0918994 1.76471 3.96507 0.369407 1.72807 -11.4332 12.2669 3.18834 -11.6281 21.1622 6.47047 -0.0 0.0 -0.0 -5.99599 22.0594 -5.96148 -3.64705 -39.674 61.4046 2.48853 -50.9431 1.18559 13.0893 0.274227 -1.64593 0.272474 -14.9409 -4.52457 -0.0 0.0 -0.0 3.63396 4.72784 -6.71875 -33.1444 42.4875 -61.1381 1.02679 26.9592 -0.24613 27.9772 -0.124432 3.5364 -2.1523 -27.7263 0.898247 0.0 0.0 0.0 24.0831 10.6497 -6.88306 -18.262 0.312275 2.77321 30.1262 7.22687 -3.90225 -35.5096 0.0 0.0 -0.0 0.0 -0.0 10.9731 -11.1914 13.1768 -17.6597 -0.316154 -2.6809 36.7225 34.1115 5.89634 -3.93255 0.0 0.0 0.0 0.0 0.0 
412.53901044 701.599 -1080.94260344 -174.379892012 -5.98392161296 174.597933387 3.95821 0.451089 1.70857 3.95977 0.341471 1.7338 3.96923 0.0918994 1.76471 3.96507 0.369407 1.72807 -11.4332 12.2669 3.18834 -11.6281 21.1622 6.47047 -0.0 0.0 -0.0 -5.99599 22.0594 -5.96148 -3.64705 -39.674 61.4046 2.48853 -50.9431 1.18559 13.0893 0.274227 -1.64593 0.272474 -14.9409 -4.52457 -0.0 0.0 -0.0 3.63396 4.72784 -6.71875 -33.1444 42.4875 -61.1381 1.02679 26.9592 -0.24613 27.9772 -0.124432 3.5364 -2.1523 -27.7263 0.898247 0.0 0.0 0.0 24.0831 10.6497 -6.88306 -18.262 0.312275 2.77321 30.1262 7.22687 -3.90225 -35.5096 0.0 0.0 -0.0 0.0 -0.0 10.9731 -11.1914 13.1768 -17.6597 -0.316154 -2.6809 36.7225 34.1115 5.89634 -3.93255 0.0 0.0 0.0 0.0 0.0 
412.142538025 701.599 -1080.87589681 -174.381750182 -5.80092921312 174.579833355 3.95821 0.451089 1.70857 3.95977 0.341471 1.7338 3.96923 0.0918994 1.76471 3.96507 0.369407 1.72807 -11.4332 12.2669 3.18834 -11.6281 21.1622 6.47047 -0.0 0.0 -0.0 -5.99599 22.0594 -5.96148 -3.64705 -39.674 61.4046 2.48853 -50.9431 1.18559 13.0893 0.274227 -1.64593 0.272474 -14.9409 -4.52457 -0.0 0.0 -0.0 3.63396 4.72784 -6.71875 -33.1444 42.4875 -61.1381 1.02679 26.9592 -0.24613 27.9772 -0.124432 3.5364 -2.1523 -27.7263 0.898247 0.0 0.0 0.0 24.0831 10.6497 -6.88306 -18.262 0.312275 2.77321 30.1262 7.22687 -3.90225 -35.5096 0.0 0.0 -0.0 0.0 -0.0 10.9731 -11.1914 13.1768 -17.6597 -0.316154 -2.6809 36.7225 34.1115 5.89634 -3.93255 0.0 0.0 0.0 0.0 0.0 
411.273995893 701.599 -1080.73433041 -174.385612727 -5.40038932462 174.540256047 3.95821 0.451089 1.70857 3.95977 0.341471 1.7338 3.96923 0.0918994 1.76471 3.96507 0.369407 1.72807 -11.4332 12.2669 3.18834 -11.6281 21.1622 6.47047 -0.0 0.0 -0.0 -5.99599 22.0594 -5.96148 -3.64705 -39.674 61.4046 2.48853 -50.9431 1.18559 13.0893 0.274227 -1.64593 0.272474 -14.9409 -4.52457 -0.0 0.0 -0.0 3.63396 4.72784 -6.71875 -33.1444 42.4875 -61.1381 1.02679 26.9592 -0.24613 27.9772 -0.124432 3.5364 -2.1523 -27.7263 0.898247 0.0 0.0 0.0 24.0831 10.6497 -6.88306 -18.262 0.312275 2.77321 30.1262 7.22687 -3.90225 -35.5096 0.0 0.0 -0.0 0.0 -0.0 10.9731 -11.1914 13.1768 -17.6597 -0.316154 -2.6809 36.7225 34.1115 5.89634 -3.93255 0.0 0.0 0.0 0.0 0.0 
409.478641002 701.599 -1080.46149733 -174.392698801 -4.57382560064 174.458744957 3.95821 0.451089 1.70857 3.95977 0.341471 1.7338 3.96923 0.0918994 1.76471 3.96507 0.369407 1.72807 -11.4332 12.2669 3.18834 -11.6281 21.1622 6.47047 -0.0 0.0 -0.0 -5.99599 22.0594 -5.96148 -3.64705 -39.674 61.4046 2.48853 -50.9431 1.18559 13.0893 0.274227 -1.64593 0.272474 -14.9409 -4.52457 -0.0 0.0 -0.0 3.63396 4.72784 -6.71875 -33.1444 42.4875 -61.1381 1.02679 26.9592 -0.24613 27.9772 -0.124432 3.5364 -2.1523 -27.7263 0.898247 0.0 0.0 0.0 24.0831 10.6497 -6.88306 -18.262 0.312275 2.77321 30.1262 7.22687 -3.90225 -35.5096 0.0 0.0 -0.0 0.0 -0.0 10.9731 -11.1914 13.1768 -17.6597 -0.316154 -2.6809 36.7225 34.1115 5.89634 -3.93255 0.0 0.0 0.0 0.0 0.0 
409.54177228 701.599 -1080.47063993 -174.392470024 -4.60286038567 174.461604802 3.95821 0.451089 1.70857 3.95977 0.341471 1.7338 3.96923 0.0918994 1.76471 3.96507 0.369407 1.72807 -11.4332 12.2669 3.18834 -11.6281 21.1622 6.47047 -0.0 0.0 -0.0 -5.99599 22.0594 -5.96148 -3.64705 -39.674 61.4046 2.48853 -50.9431 1.18559 13.0893 0.274227 -1.64593 0.272474 -14.9409 -4.52457 -0.0 0.0 -0.0 3.63396 4.72784 -6.71875 -33.1444 42.4875 -61.1381 1.02679 26.9592 -0.24613 27.9772 -0.124432 3.5364 -2.1523 -27.7263 0.898247 0.0 0.0 0.0 24.0831 10.6497 -6.88306 -18.262 0.312275 2.77321 30.1262 7.22687 -3.90225 -35.5096 0.0 0.0 -0.0 0.0 -0.0 10.9731 -11.1914 13.1768 -17.6597 -0.316154 -2.6809 36.7225 34.1115 5.89634 -3.93255 0.0 0.0 0.0 0.0 0.0 
409.465502062 701.599 -1080.45959869 -174.392746228 -4.56778312186 174.458149819 3.95821 0.451089 1.70857 3.95977 0.341471 1.7338 3.96923 0.0918994 1.76471 3.96507 0.369407 1.72807 -11.4332 12.2669 3.18834 -11.6281 21.1622 6.47047 -0.0 0.0 -0.0 -5.99599 22.0594 -5.96148 -3.64705 -39.674 61.4046 2.48853 -50.9431 1.18559 13.0893 0.274227 -1.64593 0.272474 -14.9409 -4.52457 -0.0 0.0 -0.0 3.63396 4.72784 -6.71875 -33.1444 42.4875 -61.1381 1.02679 26.9592 -0.24613 27.9772 -0.124432 3.5364 -2.1523 -27.7263 0.898247 0.0 0.0 0.0 24.0831 10.6497 -6.88306 -18.262 0.312275 2.77321 30.1262 7.22687 -3.90225 -35.5096 0.0 0.0 -0.0 0.0 -0.0 10.9731 -11.1914 13.1768 -17.6597 -0.316154 -2.6809 36.7225 34.1115 5.89634 -3.93255 0.0 0.0 0.0 0.0 0.0 
409.953400937 701.599 -1080.53105656 -174.390942029 -4.79222570113 174.480262574 3.95821 0.451089 1.70857 3.95977 0.341471 1.7338 3.96923 0.0918994 1.76471 3.96507 0.369407 1.72807 -11.4332 12.2669 3.18834 -11.6281 21.1622 6.47047 -0.0 0.0 -0.0 -5.99599 22.0594 -5.96148 -3.64705 -39.674 61.4046 2.48853 -50.9431 1.18559 13.0893 0.274227 -1.64593 0.272474 -14.9409 -4.52457 -0.0 0.0 -0.0 3.63396 4.72784 -6.71875 -33.1444 42.4875 -61.1381 1.02679 26.9592 -0.24613 27.9772 -0.124432 3.5364 -2.1523 -27.7263 0.898247 0.0 0.0 0.0 24.0831 10.6497 -6.88306 -18.262 0.312275 2.77321 30.1262 7.22687 -3.90225 -35.5096 0.0 0.0 -0.0 0.0 -0.0 10.9731 -11.1914 13.1768 -17.6597 -0.316154 -2.6809 36.7225 34.1115 5.89634 -3.93255 0.0 0.0 0.0 0.0 0.0 
411.087640867 701.599 -1080.70477124 -174.386404399 -5.31450795017 174.531777092 3.95821 0.451089 1.70857 3.95977 0.341471 1.7338 3.96923 0.0918994 1.76471 3.96507 0.369407 1.72807 -11.4332 12.2669 3.18834 -11.6281 21.1622 6.47047 -0.0 0.0 -0.0 -5.99599 22.0594 -5.96148 -3.64705 -39.674 61.4046 2.48853 -50.9431 1.18559 13.0893 0.274227 -1.64593 0.272474 -14.9409 -4.52457 -0.0 0.0 -0.0 3.63396 4.72784 -6.71875 -33.1444 42.4875 -61.1381 1.02679 26.9592 -0.24613 27.9772 -0.124432 3.5364 -2.1523 -27.7263 0.898247 0.0 0.0 0.0 24.0831 10.6497 -6.88306 -18.262 0.312275 2.77321 30.1262 7.22687 -3.90225 -35.5096 0.0 0.0 -0.0 0.0 -0.0 10.9731 -11.1914 13.1768 -17.6597 -0.316154 -2.6809 36.7225 34.1115 5.89634 -3.93255 0.0 0.0 0.0 0.0 0.0 
413.138062611 701.599 -1081.04587888 -174.376970817 -6.26060389237 174.625323673 3.95821 0.451089 1.70857 3.95977 0.341471 1.7338 3.96923 0.0918994 1.76471 3.96507 0.369407 1.72807 -11.4332 12.2669 3.18834 -11.6281 21.1622 6.47047 -0.0 0.0 -0.0 -5.99599 22.0594 -5.96148 -3.64705 -39.674 61.4046 2.48853 -50.9431 1.18559 13.0893 0.274227 -1.64593 0.272474 -14.9409 -4.52457 -0.0 0.0 -0.0 3.63396 4.72784 -6.71875 -33.1444 42.4875 -61.1381 1.02679 26.9592 -0.24613 27.9772 -0.124432 3.5364 -2.1523 -27.7263 0.898247 0.0 0.0 0.0 24.0831 10.6497 -6.88306 -18.262 0.312275 2.77321 30.1262 7.22687 -3.90225 -35.5096 0.0 0.0 -0.0 0.0 -0.0 10.9731 -11.1914 13.1768 -17.6597 -0.316154 -2.6809 36.7225 34.1115 5.89634 -3.93255 0.0 0.0 0.0 0.0 0.0 
416.033516085 701.599 -1081.58744285 -174.360900325 -7.60133882503 174.75848788 3.95821 0.451089 1.70857 3.95977 0.341471 1.7338 3.96923 0.0918994 1.76471 3.96507 0.369407 1.72807 -11.4332 12.2669 3.18834 -11.6281 21.1622 6.47047 -0.0 0.0 -0.0 -5.99599 22.0594 -5.96148 -3.64705 -39.674 61.4046 2.48853 -50.9431 1.18559 13.0893 0.274227 -1.64593 0.272474 -14.9409 -4.52457 -0.0 0.0 -0.0 3.63396 4.72784 -6.71875 -33.1444 42.4875 -61.1381 1.02679 26.9592 -0.24613 27.9772 -0.124432 3.5364 -2.1523 -27.7263 0.898247 0.0 0.0 0.0 24.0831 10.6497 -6.88306 -18.262 0.312275 2.77321 30.1262 7.22687 -3.90225 -35.5096 0.0 0.0 -0.0 0.0 -0.0 10.9731 -11.1914 13.1768 -17.6597 -0.316154 -2.6809 36.7225 34.1115 5.89634 -3.93255 0.0 0.0 0.0 0.0 0.0 
